<?xml version="1.0" encoding="UTF-8" standalone="no"?>
<svg
   xmlns:dc="http://purl.org/dc/elements/1.1/"
   xmlns:cc="http://creativecommons.org/ns#"
   xmlns:rdf="http://www.w3.org/1999/02/22-rdf-syntax-ns#"
   xmlns:svg="http://www.w3.org/2000/svg"
   xmlns="http://www.w3.org/2000/svg"
   version="1.1"
   id="svg61"
   width="1116"
   height="1280"
   viewBox="0 0 1116 1280">
  <metadata
     id="metadata67">
    <rdf:RDF>
      <cc:Work
         rdf:about="">
        <dc:format>image/svg+xml</dc:format>
        <dc:type
           rdf:resource="http://purl.org/dc/dcmitype/StillImage" />
        <dc:title></dc:title>
      </cc:Work>
    </rdf:RDF>
  </metadata>
  <defs
     id="defs65" />
  <path
     d="M 561.79903,95.045926 H 50.438462 c 0.349464,307.871234 -0.699358,615.771324 0.525162,923.624474 0.908732,60.7377 38.739313,121.6781 102.039126,138.9916 16.15777,5.1725 16.13939,5.5218 23.97507,7.1383 118.53397,24.4093 242.99402,17.9809 359.1436,53.9532 8.93661,3.3825 22.63489,13.0744 25.22272,13.0844 2.33085,0.01 16.64725,-9.182 25.58386,-12.5645 116.14958,-35.9723 240.60963,-29.5439 359.1436,-53.9532 6.62059,-1.3582 6.39972,-1.3198 23.97505,-7.1382 63.29975,-17.3136 101.13045,-78.2539 102.03915,-138.9916 1.2246,-307.85322 0.1757,-615.75331 0.5252,-923.62455 H 561.25039"
     style="fill:#b4b4b9;fill-opacity:1;stroke:#000000;stroke-width:35.02488189;stroke-linecap:butt;stroke-linejoin:miter;stroke-miterlimit:4;stroke-dasharray:none;stroke-opacity:1"
     id="path77-3" />
  <path
     id="path61"
     d="m 501.20626,572.44874 c 4.24326,-2.64826 6.24439,-11.98207 5.16878,-24.10849 -0.53646,-6.04809 -1.12167,-8.28342 -3.0094,-11.49488 -2.16911,-3.69015 -4.5817,-8.90487 -8.67774,-18.75671 -2.04613,-4.92136 -4.40224,-10.36168 -5.23583,-12.08963 -3.87292,-8.02823 -7.53142,-13.59169 -10.2445,-15.5788 -1.36637,-1.00076 -4.14436,-2.15837 -6.89823,-2.87457 -3.71827,-0.96698 -7.43765,-2.40379 -9.10938,-3.51893 -0.82345,-0.54929 -1.50959,-1.09987 -1.52477,-1.2235 -0.0152,-0.12368 0.86096,-0.26997 1.94702,-0.32513 7.48161,-0.37998 18.00446,-11.76492 22.40395,-24.23942 3.49042,-9.89686 -0.83773,-15.18907 -13.13394,-16.05937 -2.99502,-0.212 -12.87545,0.71136 -16.16422,1.5106 -1.7684,0.42977 -2.42525,0.48246 -3.07925,0.24715 -1.24015,-0.44628 -4.32976,-3.51209 -7.54233,-7.48415 -9.09493,-11.24505 -12.03459,-13.98943 -17.29216,-16.14346 -2.02182,-0.82837 -3.91097,-2.12701 -14.52525,-9.98498 -13.54963,-10.03108 -18.30296,-13.14893 -25.64987,-16.82456 -4.78702,-2.39492 -10.03206,-4.35243 -14.55709,-5.43288 -1.63963,-0.39149 -3.46837,-0.88925 -4.06388,-1.1061 -2.3898,-0.87032 -9.66904,-2.85852 -13.4515,-3.67408 -13.10534,-2.82568 -23.5356,-3.38606 -36.26648,-1.9485 -6.37862,0.72026 -7.52292,0.7745 -10.7888,0.51118 -8.12462,-0.65506 -15.06886,0.15553 -30.20572,3.52591 -18.25856,4.06546 -25.78895,4.81927 -34.60699,3.46423 -1.53141,-0.23532 -3.04502,-0.63148 -3.36356,-0.88035 -0.73815,-0.57669 -0.86576,-1.65591 -0.46007,-3.89086 0.64981,-3.57981 2.88927,-7.20438 11.64078,-18.84058 3.23104,-4.29606 6.62075,-8.87925 7.53272,-10.18491 14.05377,-20.12089 17.65914,-36.49367 11.51701,-52.30122 -1.11756,-2.8762 -2.8394,-5.82619 -3.93908,-6.7488 -3.3338,-2.79698 -6.32389,-0.63806 -11.80949,8.52678 -2.38525,3.98501 -4.18025,6.41355 -4.79639,6.4892 -0.16679,0.0206 -0.74922,-0.21869 -1.29427,-0.53147 -3.4096,-1.9567 -7.4563,-2.10958 -12.80961,-0.48393 -6.9115,2.09883 -15.17744,7.33238 -19.16274,12.13282 -1.68798,2.03324 -3.60876,5.27273 -5.89095,9.93531 -3.66186,7.48135 -6.31824,14.65638 -11.7693,31.78972 -1.92336,6.04537 -3.62425,11.15971 -3.77979,11.36521 -0.1555,0.20549 -1.64406,0.95258 -3.30789,1.6602 -18.47193,7.85595 -31.50201,19.88311 -37.25294,34.38561 -0.49921,1.25896 -1.33717,3.04114 -1.86203,3.96038 -2.12216,3.71651 -3.7556,9.45533 -4.28432,15.05225 -0.3712,3.92932 0.27441,9.81126 1.37534,12.52904 1.93366,4.77378 4.73729,7.29855 9.3681,8.43646 0.96438,0.23697 2.87612,0.31013 5.24302,0.20065 6.15505,-0.28465 11.38646,1.09003 15.54262,4.08428 2.09735,1.51103 3.56939,3.46432 3.76182,4.99171 0.31041,2.46586 -2.34833,4.62501 -7.89162,6.40825 -6.21274,1.99856 -9.23612,3.45701 -20.21636,9.75196 -2.00735,1.1508 -4.25842,2.4374 -5.00237,2.85907 -1.20007,0.68021 -2.18672,0.89204 -8.74027,1.87659 -8.19333,1.23089 -9.41447,1.60704 -11.3471,3.49519 -1.41347,1.38096 -2.31219,3.81497 -2.39616,6.48954 -0.0646,2.05446 -0.0623,2.06187 1.02365,3.37044 1.42614,1.71845 3.77546,3.40985 5.70513,4.10736 2.46067,0.88943 4.59794,1.04894 8.17283,0.61 4.10346,-0.50384 7.64752,-1.66662 16.81463,-5.51694 3.75084,-1.57539 7.7865,-3.17548 8.96812,-3.55577 1.18169,-0.3803 3.24757,-1.10121 4.59102,-1.60204 2.55715,-0.95336 4.40717,-1.21515 4.6679,-0.66054 0.0848,0.18007 -1.80272,2.82088 -4.19415,5.86842 -4.78263,6.09469 -5.73113,7.89477 -5.71579,10.84758 0.0123,2.38014 0.96204,5.09411 2.24144,6.4053 4.46685,4.5778 14.24005,1.80287 30.25734,-8.59107 9.45886,-6.13805 15.47029,-8.45301 33.10518,-12.74867 14.16369,-3.4501 22.43271,-5.87657 25.60376,-7.51326 7.11189,-3.67062 53.86436,-1.57956 78.58047,3.51462 5.12044,1.05536 8.18374,2.009 13.8705,4.31802 12.54492,5.09373 18.7284,7.26577 23.98725,8.42595 2.97991,0.6574 3.68322,1.04993 13.17466,7.3533 3.55237,2.35917 7.58719,4.94751 8.96626,5.75189 6.0046,3.50239 11.72228,5.76096 16.71345,6.60206 2.61404,0.4405 2.81267,0.43028 11.64633,-0.59754 7.77566,-0.90479 9.43961,-1.01851 12.34541,-0.84374 14.5201,0.87321 23.71201,6.92041 31.12033,20.4735 0.79736,1.45867 3.23883,6.46925 5.42553,11.1346 2.18669,4.66535 4.68501,9.70443 5.55181,11.1979 3.18943,5.49542 7.08491,9.70987 11.1152,12.02538 3.50518,2.01384 5.72417,2.19706 8.16422,0.67418 z"
     style="fill:#010101;stroke-width:0.2872183" />
  <path
     id="path61-6"
     d="m 1008.7814,574.12246 c 4.2432,-2.64826 6.2444,-11.98207 5.1687,-24.10849 -0.5364,-6.04809 -1.1216,-8.28342 -3.0094,-11.49488 -2.1691,-3.69015 -4.5817,-8.90487 -8.6777,-18.75671 -2.0461,-4.92136 -4.4022,-10.36168 -5.2358,-12.08963 -3.87294,-8.02823 -7.53144,-13.59169 -10.24452,-15.5788 -1.36637,-1.00076 -4.14436,-2.15837 -6.89823,-2.87457 -3.71827,-0.96698 -7.43765,-2.40379 -9.10938,-3.51893 -0.82345,-0.54929 -1.50959,-1.09987 -1.52477,-1.2235 -0.0152,-0.12368 0.86096,-0.26997 1.94702,-0.32513 7.48161,-0.37998 18.00446,-11.76492 22.40395,-24.23942 3.49043,-9.89686 -0.83773,-15.18907 -13.13394,-16.05937 -2.99502,-0.212 -12.87545,0.71136 -16.16422,1.5106 -1.7684,0.42977 -2.42525,0.48246 -3.07925,0.24715 -1.24015,-0.44628 -4.32976,-3.51209 -7.54233,-7.48415 -9.09493,-11.24505 -12.03459,-13.98943 -17.29216,-16.14346 -2.02182,-0.82837 -3.91097,-2.12701 -14.52525,-9.98498 -13.54963,-10.03108 -18.30296,-13.14893 -25.64987,-16.82456 -4.78702,-2.39492 -10.03206,-4.35243 -14.55709,-5.43288 -1.63963,-0.39149 -3.46837,-0.88925 -4.06388,-1.1061 -2.3898,-0.87032 -9.66904,-2.85852 -13.4515,-3.67408 -13.10534,-2.82568 -23.5356,-3.38606 -36.26648,-1.9485 -6.37862,0.72026 -7.52292,0.7745 -10.7888,0.51118 -8.12462,-0.65506 -15.06886,0.15553 -30.20572,3.52591 -18.25856,4.06546 -25.78895,4.81927 -34.60699,3.46423 -1.53141,-0.23532 -3.04502,-0.63148 -3.36356,-0.88035 -0.73815,-0.57669 -0.86576,-1.65591 -0.46007,-3.89086 0.64981,-3.57981 2.88927,-7.20438 11.64078,-18.84058 3.23104,-4.29606 6.62075,-8.87925 7.53272,-10.18491 14.05377,-20.12089 17.65914,-36.49367 11.51701,-52.30123 -1.11756,-2.8762 -2.8394,-5.82619 -3.93908,-6.7488 -3.3338,-2.79698 -6.32389,-0.63806 -11.80949,8.52678 -2.38525,3.98502 -4.18025,6.41356 -4.79639,6.48921 -0.16679,0.0206 -0.74922,-0.21869 -1.29427,-0.53147 -3.4096,-1.9567 -7.4563,-2.10958 -12.80961,-0.48393 -6.9115,2.09883 -15.17744,7.33238 -19.16274,12.13282 -1.68798,2.03324 -3.60876,5.27273 -5.89095,9.93531 -3.66186,7.48135 -6.31824,14.65638 -11.7693,31.78972 -1.92336,6.04537 -3.62425,11.15971 -3.77979,11.36521 -0.1555,0.20549 -1.64406,0.95258 -3.30789,1.6602 -18.47193,7.85595 -31.50201,19.88311 -37.25294,34.38561 -0.49921,1.25896 -1.33717,3.04114 -1.86203,3.96038 -2.12216,3.71651 -3.7556,9.45533 -4.28432,15.05225 -0.3712,3.92932 0.27441,9.81126 1.37534,12.52904 1.93366,4.77378 4.73729,7.29855 9.3681,8.43646 0.96438,0.23697 2.87612,0.31013 5.24302,0.20065 6.15505,-0.28465 11.38646,1.09003 15.54262,4.08428 2.09735,1.51103 3.56939,3.46432 3.76182,4.99171 0.31041,2.46586 -2.34833,4.62501 -7.89162,6.40825 -6.21274,1.99856 -9.23612,3.45701 -20.21636,9.75196 -2.00735,1.1508 -4.25842,2.4374 -5.00237,2.85907 -1.20007,0.68021 -2.18672,0.89204 -8.74027,1.87659 -8.19333,1.23089 -9.41447,1.60704 -11.3471,3.49519 -1.41347,1.38096 -2.31219,3.81497 -2.39616,6.48954 -0.0646,2.05446 -0.0623,2.06187 1.02365,3.37044 1.42614,1.71845 3.77546,3.40985 5.70513,4.10736 2.46067,0.88943 4.59794,1.04894 8.17283,0.61 4.10346,-0.50384 7.64752,-1.66662 16.81463,-5.51694 3.75084,-1.57539 7.7865,-3.17548 8.96812,-3.55577 1.18169,-0.3803 3.24757,-1.10121 4.59102,-1.60204 2.55715,-0.95336 4.40717,-1.21515 4.6679,-0.66054 0.0848,0.18007 -1.80272,2.82088 -4.19415,5.86842 -4.78263,6.09469 -5.73113,7.89477 -5.71579,10.84758 0.0123,2.38014 0.96204,5.09411 2.24144,6.4053 4.46685,4.5778 14.24005,1.80287 30.25734,-8.59107 9.45886,-6.13805 15.47029,-8.45301 33.10518,-12.74867 14.16369,-3.4501 22.43271,-5.87657 25.60376,-7.51326 7.11189,-3.67062 53.86436,-1.57956 78.58047,3.51462 5.12044,1.05536 8.18374,2.009 13.8705,4.31802 12.54492,5.09373 18.7284,7.26577 23.98725,8.42595 2.97991,0.6574 3.68322,1.04993 13.17466,7.3533 3.55237,2.35917 7.58719,4.94751 8.96626,5.75189 6.0046,3.50239 11.72228,5.76096 16.71345,6.60206 2.61404,0.4405 2.81267,0.43028 11.64633,-0.59754 7.77566,-0.90479 9.43961,-1.01851 12.34541,-0.84374 14.5201,0.87321 23.71201,6.92041 31.12033,20.4735 0.79736,1.45867 3.23883,6.46925 5.42553,11.1346 2.18669,4.66535 4.68501,9.70443 5.55181,11.1979 3.18943,5.49542 7.08495,9.70987 11.11515,12.02538 3.5052,2.01384 5.7242,2.19706 8.1643,0.67418 z"
     style="fill:#010101;stroke-width:0.2872183" />
  <path
     id="path61-6-7"
     d="m 757.44483,1005.4781 c 4.2433,-2.6483 6.2444,-11.98209 5.1688,-24.10851 -0.5364,-6.04809 -1.1217,-8.28342 -3.0094,-11.49488 -2.1691,-3.69015 -4.5817,-8.90487 -8.6777,-18.75671 -2.0462,-4.92136 -4.4023,-10.36168 -5.23586,-12.08963 -3.87292,-8.02823 -7.53142,-13.59169 -10.2445,-15.5788 -1.36637,-1.00076 -4.14436,-2.15837 -6.89823,-2.87457 -3.71827,-0.96698 -7.43765,-2.40379 -9.10938,-3.51893 -0.82345,-0.54929 -1.50959,-1.09987 -1.52477,-1.2235 -0.0152,-0.12368 0.86096,-0.26997 1.94702,-0.32513 7.48161,-0.37998 18.00446,-11.76492 22.40395,-24.23942 3.49042,-9.89686 -0.83773,-15.18907 -13.13394,-16.05937 -2.99502,-0.212 -12.87545,0.71136 -16.16422,1.5106 -1.7684,0.42977 -2.42525,0.48246 -3.07925,0.24715 -1.24015,-0.44628 -4.32976,-3.51209 -7.54233,-7.48415 -9.09493,-11.24505 -12.03459,-13.98943 -17.29216,-16.14346 -2.02182,-0.82837 -3.91097,-2.12701 -14.52525,-9.98498 -13.54963,-10.03108 -18.30296,-13.14893 -25.64987,-16.82456 -4.78702,-2.39492 -10.03206,-4.35243 -14.55709,-5.43288 -1.63963,-0.39149 -3.46837,-0.88925 -4.06388,-1.1061 -2.3898,-0.87032 -9.66904,-2.85852 -13.4515,-3.67408 -13.10534,-2.82568 -23.5356,-3.38606 -36.26648,-1.9485 -6.37862,0.72026 -7.52292,0.7745 -10.7888,0.51118 -8.12462,-0.65506 -15.06886,0.15553 -30.20572,3.52591 -18.25856,4.06546 -25.78895,4.81927 -34.60699,3.46423 -1.53141,-0.23532 -3.04502,-0.63148 -3.36356,-0.88035 -0.73815,-0.57669 -0.86576,-1.65591 -0.46007,-3.89086 0.64981,-3.57981 2.88927,-7.20438 11.64078,-18.84058 3.23104,-4.29606 6.62075,-8.87925 7.53272,-10.18491 14.05377,-20.12089 17.65914,-36.49367 11.51701,-52.30123 -1.11756,-2.8762 -2.8394,-5.82619 -3.93908,-6.7488 -3.3338,-2.79698 -6.32389,-0.63806 -11.80949,8.52678 -2.38525,3.98502 -4.18025,6.41356 -4.79639,6.48921 -0.16679,0.0206 -0.74922,-0.21869 -1.29427,-0.53147 -3.4096,-1.9567 -7.4563,-2.10958 -12.80961,-0.48393 -6.9115,2.09883 -15.17744,7.33238 -19.16274,12.13282 -1.68798,2.03324 -3.60876,5.27273 -5.89095,9.93531 -3.66186,7.48135 -6.31824,14.65638 -11.7693,31.78972 -1.92336,6.04537 -3.62425,11.15971 -3.77979,11.36521 -0.1555,0.20549 -1.64406,0.95258 -3.30789,1.6602 -18.47193,7.85595 -31.50201,19.88311 -37.25294,34.38561 -0.49921,1.25896 -1.33717,3.04114 -1.86203,3.96038 -2.12216,3.71651 -3.7556,9.45533 -4.28432,15.05225 -0.3712,3.92932 0.27441,9.81126 1.37534,12.52904 1.93366,4.77378 4.73729,7.29855 9.3681,8.43646 0.96438,0.23697 2.87612,0.31013 5.24302,0.20065 6.15505,-0.28465 11.38646,1.09003 15.54262,4.08428 2.09735,1.51103 3.56939,3.46432 3.76182,4.99171 0.31041,2.46586 -2.34833,4.62501 -7.89162,6.40825 -6.21274,1.99856 -9.23612,3.45701 -20.21636,9.75196 -2.00735,1.1508 -4.25842,2.4374 -5.00237,2.85907 -1.20007,0.68021 -2.18672,0.89204 -8.74027,1.87659 -8.19333,1.23089 -9.41447,1.60704 -11.3471,3.49519 -1.41347,1.38096 -2.31219,3.81497 -2.39616,6.48954 -0.0646,2.05446 -0.0623,2.06187 1.02365,3.37044 1.42614,1.71845 3.77546,3.40985 5.70513,4.10736 2.46067,0.88943 4.59794,1.04894 8.17283,0.61 4.10346,-0.50384 7.64752,-1.66662 16.81463,-5.51694 3.75084,-1.57539 7.7865,-3.17548 8.96812,-3.55577 1.18169,-0.3803 3.24757,-1.10121 4.59102,-1.60204 2.55715,-0.95336 4.40717,-1.21515 4.6679,-0.66054 0.0848,0.18007 -1.80272,2.82088 -4.19415,5.86842 -4.78263,6.09469 -5.73113,7.89477 -5.71579,10.84758 0.0123,2.38014 0.96204,5.09411 2.24144,6.4053 4.46685,4.5778 14.24005,1.80287 30.25734,-8.59107 9.45886,-6.13805 15.47029,-8.45301 33.10518,-12.74867 14.16369,-3.4501 22.43271,-5.87657 25.60376,-7.51326 7.11189,-3.67062 53.86436,-1.57956 78.58047,3.51462 5.12044,1.05536 8.18374,2.009 13.8705,4.31802 12.54492,5.09373 18.7284,7.26577 23.98725,8.42595 2.97991,0.6574 3.68322,1.04993 13.17466,7.3533 3.55237,2.35917 7.58719,4.94751 8.96626,5.75189 6.0046,3.50239 11.72228,5.76096 16.71345,6.60206 2.61404,0.4405 2.81267,0.43028 11.64633,-0.59754 7.77566,-0.90479 9.43961,-1.01851 12.34541,-0.84374 14.5201,0.87321 23.71201,6.92041 31.12033,20.4735 0.79736,1.45867 3.23883,6.46925 5.42553,11.1346 2.18669,4.66535 4.68501,9.70443 5.55181,11.1979 3.18943,5.49542 7.08491,9.70992 11.11519,12.02542 3.5052,2.0138 5.7242,2.197 8.1642,0.6741 z"
     style="fill:#010101;stroke-width:0.2872183" />
</svg>
