<?xml version="1.0" encoding="UTF-8" standalone="no"?>
<!-- Generator: Adobe Illustrator 13.0.2, SVG Export Plug-In  -->

<svg
   xmlns:dc="http://purl.org/dc/elements/1.1/"
   xmlns:cc="http://creativecommons.org/ns#"
   xmlns:rdf="http://www.w3.org/1999/02/22-rdf-syntax-ns#"
   xmlns:svg="http://www.w3.org/2000/svg"
   xmlns="http://www.w3.org/2000/svg"
   xmlns:sodipodi="http://sodipodi.sourceforge.net/DTD/sodipodi-0.dtd"
   xmlns:inkscape="http://www.inkscape.org/namespaces/inkscape"
   version="1.1"
   x="0px"
   y="0px"
   width="33.649921"
   height="33.665001"
   viewBox="-0.625 -0.323 33.649921 33.665001"
   enable-background="new -0.625 -0.323 145 35"
   xml:space="preserve"
   id="svg971"
   sodipodi:docname="United_Technologies.svg"
   inkscape:version="0.92.5 (2060ec1f9f, 2020-04-08)"><metadata
   id="metadata975"><rdf:RDF><cc:Work
       rdf:about=""><dc:format>image/svg+xml</dc:format><dc:type
         rdf:resource="http://purl.org/dc/dcmitype/StillImage" /><dc:title></dc:title></cc:Work></rdf:RDF></metadata><sodipodi:namedview
   pagecolor="#ffffff"
   bordercolor="#666666"
   borderopacity="1"
   objecttolerance="10"
   gridtolerance="10"
   guidetolerance="10"
   inkscape:pageopacity="0"
   inkscape:pageshadow="2"
   inkscape:window-width="1920"
   inkscape:window-height="1016"
   id="namedview973"
   showgrid="false"
   inkscape:pagecheckerboard="true"
   fit-margin-top="0.5"
   fit-margin-right="0.5"
   fit-margin-bottom="0.5"
   fit-margin-left="0.5"
   inkscape:zoom="9.5310345"
   inkscape:cx="72.375"
   inkscape:cy="15.988"
   inkscape:window-x="0"
   inkscape:window-y="27"
   inkscape:window-maximized="1"
   inkscape:current-layer="svg971" />
<defs
   id="defs931">
</defs>


















<path
   d="m 22.447,15.495 c -0.049,-0.308 -0.12,-0.607 -0.212,-0.899 l 9.694,-2.472 c 0.103,0.293 0.206,0.753 0.256,1.056 z m -0.896,-2.367 c 0.171,0.271 0.323,0.555 0.452,0.851 L 30.796,9.192 C 30.662,8.879 30.418,8.429 30.223,8.149 Z M 28.457,5.73 C 28.194,5.41 27.788,4.969 27.46,4.694 l -7.15,7.01 c 0.321,0.272 0.613,0.576 0.873,0.906 z m -9.631,5.035 c 0.425,0.19 0.824,0.429 1.192,0.706 l 5.179,-8.58 C 24.823,2.62 24.284,2.287 23.857,2.094 Z m -1.637,-0.482 c 0.487,0.073 0.956,0.201 1.4,0.38 L 21.306,1.005 C 20.855,0.832 20.233,0.661 19.751,0.579 Z M 17.097,0.219 C 16.826,0.193 16.486,0.177 16.219,0.177 c -0.242,0 -0.578,0.013 -0.812,0.036 l 0.091,10.045 c 0.246,-0.029 0.498,-0.045 0.753,-0.045 0.257,0 0.51,0.016 0.759,0.045 z m 5.164,31.442 -1.069,-3.832 0.132,-0.051 2.098,3.365 c 1.03,-0.463 2.046,-1.12 2.869,-1.811 l -1.916,-3.085 0.109,-0.091 2.727,2.398 c 0.911,-0.777 1.747,-1.759 2.367,-2.694 l -2.498,-2.225 0.077,-0.12 3.049,1.379 c 0.673,-1.046 1.233,-2.27 1.566,-3.476 l -2.765,-1.28 0.034,-0.14 3.026,0.36 c 0.326,-1.207 0.471,-2.523 0.457,-3.852 h -9.999 c -0.012,3.455 -2.817,6.255 -6.274,6.255 -3.466,0 -6.275,-2.81 -6.275,-6.275 0,-3.173 2.356,-5.796 5.415,-6.216 L 12.847,0.54 C 12.306,0.63 11.629,0.807 11.129,1 l 2.519,9.111 -0.14,0.052 L 8.831,1.955 C 8.27,2.203 7.641,2.58 7.168,2.929 l 4.627,7.65 -0.113,0.089 -6.356,-6.31 C 4.856,4.744 4.307,5.286 3.94,5.758 L 10.077,11.606 9.985,11.717 2.629,7.47 C 2.23,7.995 1.829,8.718 1.567,9.312 l 7.029,3.871 -0.053,0.134 -7.75,-2.152 C 0.54,11.817 0.312,12.657 0.204,13.351 l 7.377,1.804 -0.026,0.144 -7.613,0.005 c -0.025,0.366 -0.067,0.829 -0.067,1.201 0,0.363 0.04,0.802 0.064,1.158 l 7.164,-0.061 0.014,0.138 -6.95,1.733 c 0.128,0.822 0.339,1.639 0.632,2.394 l 6.459,-1.771 0.055,0.131 -5.858,3.244 c 0.35,0.778 0.785,1.532 1.285,2.239 l 5.315,-3.073 0.088,0.111 -4.402,4.277 c 0.552,0.689 1.191,1.326 1.883,1.894 l 3.958,-3.916 0.115,0.083 -2.828,4.795 c 0.744,0.543 1.543,1.014 2.406,1.396 l 2.556,-4.382 0.133,0.053 -1.324,4.897 c 0.869,0.344 1.813,0.588 2.796,0.74 l 1.235,-4.527 0.141,0.021 0.03,4.685 c 0.453,0.037 0.907,0.078 1.369,0.078 0.554,0 1.101,-0.049 1.641,-0.103 l 0.002,-4.345 0.141,-0.02 1.188,4.176 c 1.112,-0.176 2.17,-0.496 3.073,-0.888"
   id="path969"
   inkscape:connector-curvature="0"
   style="fill:#ffffff" />
</svg>
